#!OML:ASF E:\motion texture\Top Level 1\Subject 1\Session 1\male.ASF
:FULLY-SPECIFIED
:DEGREES
689
root -34.7015 17.2632 9.6625 194.122 -61.2109 -192.044
lowerback 4.7498 -9.32528 -0.606875
upperback -1.2464 -12.6003 7.70977
thorax -2.03222 -6.40874 9.0573
lowerneck 3.40248 -13.3293 -20.016
upperneck 29.4261 -28.354 12.6236
head 14.2993 -14.9487 3.90687
rclavicle -1.66979e-013 8.5875e-014
rhumerus -32.4246 -15.0169 -48.2964
rradius 35.1653
rwrist 10.9922
rhand -7.70725 -33.5352
rfingers 7.12502
rthumb 18.1905 -62.7046
lclavicle -1.66979e-013 8.5875e-014
lhumerus -40.5828 10.5901 73.0134
lradius 84.2391
lwrist -26.3576
lhand -3.98957 18.374
lfingers 7.12502
lthumb 21.764 47.1704
rfemur -28.4855 1.96649 17.3969
rtibia 51.2817
rfoot -18.0667 -11.9364
rtoes 6.23145
lfemur -15.085 7.14891 -13.1817
ltibia 32.2324
lfoot -15.3999 7.2433
ltoes -12.7187
690
root -34.8427 17.2619 9.71611 194.093 -61.0194 -192.041
lowerback 4.61507 -9.36821 -0.517392
upperback -1.33975 -12.6605 7.82225
thorax -2.03915 -6.44251 9.11399
lowerneck 3.4847 -13.3814 -20.0681
upperneck 29.2551 -28.463 12.6877
head 14.2499 -15.0018 3.92204
rclavicle -9.54166e-015 -1.90833e-014
rhumerus -32.689 -15.3905 -49.114
rradius 34.075
rwrist 11.7666
rhand -6.29272 -32.9629
rfingers 7.12502
rthumb 19.5509 -61.9999
lclavicle -9.54166e-015 -1.90833e-014
lhumerus -40.8051 9.64512 74.574
lradius 84.1473
lwrist -26.7797
lhand -1.54772 17.363
lfingers 7.12502
lthumb 24.1071 45.8685
rfemur -28.3376 2.12829 16.9745
rtibia 51.695
rfoot -18.3171 -12.1646
rtoes 5.38168
lfemur -14.6775 7.06449 -13.5601
ltibia 32.1539
lfoot -15.8344 7.34171
ltoes -12.3805
691
root -34.9816 17.2655 9.76745 194.049 -60.827 -192.008
lowerback 4.47832 -9.40846 -0.427847
upperback -1.43194 -12.7182 7.94078
thorax -2.04269 -6.47561 9.17637
lowerneck 3.56001 -13.4338 -20.1181
upperneck 29.0684 -28.5679 12.7687
head 14.1974 -15.0507 3.94351
rclavicle 2.5842e-014 -2.22639e-014
rhumerus -32.9795 -15.785 -49.9068
rradius 32.9868
rwrist 12.5533
rhand -4.87695 -32.3194
rfingers 7.12502
rthumb 20.9116 -61.2123
lclavicle 2.5842e-014 -2.22639e-014
lhumerus -41.0668 8.75288 76.0242
lradius 84.1046
lwrist -27.1882
lhand 0.870872 16.2994
lfingers 7.12502
lthumb 26.4243 44.4777
rfemur -28.2083 2.28874 16.568
rtibia 52.0754
rfoot -18.4401 -12.3679
rtoes 4.51971
lfemur -14.2459 6.96726 -13.9378
ltibia 32.0278
lfoot -16.243 7.47257
ltoes -12.0289
692
root -35.1195 17.2736 9.8165 194.024 -60.6356 -191.992
lowerback 4.33568 -9.44936 -0.353495
upperback -1.52007 -12.7784 8.05582
thorax -2.0358 -6.51019 9.24116
lowerneck 3.62704 -13.4885 -20.1606
upperneck 28.8676 -28.6695 12.8605
head 14.1407 -15.0954 3.96816
rclavicle -8.15017e-014 -3.18055e-015
rhumerus -33.2966 -16.2038 -50.6683
rradius 31.9053
rwrist 13.3478
rhand -3.47423 -31.6139
rfingers 7.12502
rthumb 22.2588 -60.3521
lclavicle -8.15017e-014 -3.18055e-015
lhumerus -41.3615 7.91745 77.3597
lradius 84.1121
lwrist -27.5742
lhand 3.21145 15.2156
lfingers 7.12502
lthumb 28.6626 43.0369
rfemur -28.0819 2.42275 16.1519
rtibia 52.4282
rfoot -18.4652 -12.5212
rtoes 3.65792
lfemur -13.7704 6.84946 -14.346
ltibia 31.8381
lfoot -16.625 7.63374
ltoes -11.6753
693
root -35.2556 17.2857 9.86315 194.004 -60.448 -191.974
lowerback 4.18799 -9.48997 -0.288146
upperback -1.60594 -12.8395 8.17119
thorax -2.02148 -6.54556 9.30954
lowerneck 3.6855 -13.5456 -20.1952
upperneck 28.6533 -28.7671 12.9618
head 14.0798 -15.1357 3.99549
rclavicle -7.95139e-016 -3.18055e-015
rhumerus -33.6419 -16.6426 -51.394
rradius 30.8374
rwrist 14.1434
rhand -2.10632 -30.859
rfingers 7.12502
rthumb 23.5714 -59.4345
lclavicle -7.95139e-016 -3.18055e-015
lhumerus -41.6814 7.14146 78.5772
lradius 84.1697
lwrist -27.929
lhand 5.41961 14.1475
lfingers 7.12502
lthumb 30.7701 41.5926
rfemur -27.9731 2.53811 15.7431
rtibia 52.7686
rfoot -18.4094 -12.6388
rtoes 2.82583
lfemur -13.2652 6.71652 -14.7658
ltibia 31.5923
lfoot -16.9814 7.82477
ltoes -11.3208
694
root -35.3898 17.3013 9.9073 193.992 -60.2667 -191.954
lowerback 4.03643 -9.53093 -0.234057
upperback -1.69103 -12.9024 8.28689
thorax -2.00129 -6.58203 9.38308
lowerneck 3.73905 -13.6047 -20.2264
upperneck 28.4249 -28.8617 13.0747
head 14.0151 -15.1727 4.02691
rclavicle 9.02482e-014 -1.145e-013
rhumerus -34.0168 -17.107 -52.0772
rradius 29.7875
rwrist 14.9419
rhand -0.794525 -30.071
rfingers 7.12502
rthumb 24.8291 -58.4789
lclavicle 9.02482e-014 -1.145e-013
lhumerus -42.021 6.42631 79.6742
lradius 84.2764
lwrist -28.2453
lhand 7.45909 13.1202
lfingers 7.12502
lthumb 32.7126 40.1806
rfemur -27.8841 2.63277 15.3439
rtibia 53.0975
rfoot -18.2796 -12.7337
rtoes 2.04282
lfemur -12.7353 6.57041 -15.1946
ltibia 31.2932
lfoot -17.3151 8.04155
ltoes -10.9805
695
root -35.5219 17.3197 9.9489 193.992 -60.0915 -191.936
lowerback 3.88308 -9.57126 -0.19495
upperback -1.77656 -12.9656 8.40271
thorax -1.97709 -6.61871 9.46406
lowerneck 3.7896 -13.664 -20.2576
upperneck 28.1832 -28.9534 13.203
head 13.9483 -15.2067 4.06429
rclavicle 1.55052e-013 4.45278e-014
rhumerus -34.4225 -17.6032 -52.7111
rradius 28.7595
rwrist 15.7469
rhand 0.447078 -29.2601
rfingers 7.12502
rthumb 26.0185 -57.4986
lclavicle 1.55052e-013 4.45278e-014
lhumerus -42.3729 5.7717 80.6488
lradius 84.4306
lwrist -28.5204
lhand 9.30367 12.1572
lfingers 7.12502
lthumb 34.4656 38.8363
rfemur -27.8253 2.70925 14.9564
rtibia 53.4232
rfoot -18.082 -12.8172
rtoes 1.31178
lfemur -12.1883 6.41113 -15.6273
ltibia 30.9428
lfoot -17.6176 8.28178
ltoes -10.6577
696
root -35.6519 17.3404 9.98797 194.024 -59.9226 -191.949
lowerback 3.73073 -9.61273 -0.18382
upperback -1.86129 -13.0316 8.51192
thorax -1.94745 -6.65634 9.55252
lowerneck 3.83917 -13.7232 -20.29
upperneck 27.9296 -29.0435 13.3477
head 13.8801 -15.2387 4.10802
rclavicle 9.97899e-014 5.08889e-014
rhumerus -34.8584 -18.1273 -53.2946
rradius 27.7582
rwrist 16.5528
rhand 1.59576 -28.4443
rfingers 7.12502
rthumb 27.1179 -56.5164
lclavicle 9.97899e-014 5.08889e-014
lhumerus -42.7294 5.17744 81.4962
lradius 84.6296
lwrist -28.7508
lhand 10.9433 11.273
lfingers 7.12502
lthumb 36.0205 37.5845
rfemur -27.7914 2.76344 14.5615
rtibia 53.7475
rfoot -17.8239 -12.8894
rtoes 0.640674
lfemur -11.6157 6.23243 -16.0815
ltibia 30.5355
lfoot -17.886 8.54714
ltoes -10.3814
697
root -35.7797 17.3626 10.0247 194.065 -59.7594 -191.969
lowerback 3.58707 -9.65367 -0.190664
upperback -1.94522 -13.0973 8.61694
thorax -1.91866 -6.6935 9.64744
lowerneck 3.88777 -13.7829 -20.3222
upperneck 27.666 -29.1331 13.5066
head 13.8111 -15.2693 4.15669
rclavicle -3.97569e-016 -3.18055e-014
rhumerus -35.324 -18.6754 -53.8258
rradius 26.7888
rwrist 17.3559
rhand 2.64995 -27.6355
rfingers 7.12502
rthumb 28.126 -55.5462
lclavicle -3.97569e-016 -3.18055e-014
lhumerus -43.083 4.6409 82.2145
lradius 84.8705
lwrist -28.9343
lhand 12.3757 10.4804
lfingers 7.12502
lthumb 37.376 36.4467
rfemur -27.7859 2.81031 14.1729
rtibia 54.071
rfoot -17.5225 -12.9516
rtoes 0.0650168
lfemur -11.0216 6.0377 -16.5383
ltibia 30.0756
lfoot -18.1177 8.8364
ltoes -10.1558
698
root -35.9055 17.3859 10.0594 194.094 -59.6017 -191.978
lowerback 3.45533 -9.69302 -0.202722
upperback -2.02537 -13.1608 8.71751
thorax -1.89255 -6.72936 9.74227
lowerneck 3.93475 -13.8433 -20.3536
upperneck 27.395 -29.2231 13.6783
head 13.7425 -15.2989 4.20944
rclavicle 2.82274e-014 2.22639e-014
rhumerus -35.8176 -19.2513 -54.3001
rradius 25.8522
rwrist 18.1626
rhand 3.60623 -26.8425
rfingers 7.12502
rthumb 29.0397 -54.5995
lclavicle 2.82274e-014 2.22639e-014
lhumerus -43.4251 4.16178 82.8017
lradius 85.1498
lwrist -29.0713
lhand 13.6071 9.78824
lfingers 7.12502
lthumb 38.5389 35.4388
rfemur -27.8003 2.84805 13.8039
rtibia 54.3871
rfoot -17.1755 -13.0201
rtoes -0.467096
lfemur -10.4014 5.82946 -16.9845
ltibia 29.5618
lfoot -18.3085 9.14243
ltoes -9.95019
699
root -36.0298 17.4099 10.0921 194.124 -59.4471 -191.994
lowerback 3.33285 -9.73226 -0.224584
upperback -2.10044 -13.2239 8.80935
thorax -1.86601 -6.76471 9.83409
lowerneck 3.98045 -13.9035 -20.3842
upperneck 27.118 -29.3125 13.8614
head 13.6743 -15.3273 4.26597
rclavicle -1.15295e-013 3.49861e-014
rhumerus -36.3321 -19.846 -54.7195
rradius 24.9481
rwrist 18.9729
rhand 4.4707 -26.0758
rfingers 7.12502
rthumb 29.865 -53.6875
lclavicle -1.15295e-013 3.49861e-014
lhumerus -43.7499 3.73992 83.2569
lradius 85.4632
lwrist -29.1621
lhand 14.6375 9.20301
lfingers 7.12502
lthumb 39.5103 34.5749
rfemur -27.8311 2.87385 13.4426
rtibia 54.6973
rfoot -16.7929 -13.0905
rtoes -0.942397
lfemur -9.74897 5.60701 -17.433
ltibia 28.9901
lfoot -18.456 9.46181
ltoes -9.75824
700
root -36.1524 17.434 10.1229 194.149 -59.296 -192.004
lowerback 3.21877 -9.77101 -0.251819
upperback -2.17151 -13.2861 8.89445
thorax -1.84029 -6.79931 9.92269
lowerneck 4.02597 -13.9635 -20.4131
upperneck 26.8368 -29.402 14.054
head 13.6067 -15.3552 4.32541
rclavicle 1.20066e-013 -1.55847e-013
rhumerus -36.8637 -20.4579 -55.0847
rradius 24.0777
rwrist 19.7838
rhand 5.22956 -25.3597
rfingers 7.12502
rthumb 30.5889 -52.8387
lclavicle 1.20066e-013 -1.55847e-013
lhumerus -44.0508 3.37458 83.5792
lradius 85.8062
lwrist -29.2094
lhand 15.481 8.72067
lfingers 7.12502
lthumb 40.3042 33.8542
rfemur -27.8898 2.89195 13.0979
rtibia 55.0077
rfoot -16.3761 -13.1704
rtoes -1.36534
lfemur -9.07735 5.37467 -17.8742
ltibia 28.3741
lfoot -18.5708 9.78711
ltoes -9.57433
701
root -36.2731 17.4578 10.1521 194.166 -59.1453 -191.999
lowerback 3.11191 -9.80716 -0.281081
upperback -2.23983 -13.3443 8.97379
thorax -1.81709 -6.83164 10.0074
lowerneck 4.07249 -14.0237 -20.4388
upperneck 26.5518 -29.4928 14.2562
head 13.5397 -15.383 4.3874
rclavicle 1.7016e-013 -1.30403e-013
rhumerus -37.4113 -21.0856 -55.3921
rradius 23.2429
rwrist 20.601
rhand 5.89752 -24.6907
rfingers 7.12502
rthumb 31.2257 -52.0489
lclavicle 1.7016e-013 -1.30403e-013
lhumerus -44.3206 3.066 83.77
lradius 86.174
lwrist -29.2171
lhand 16.1555 8.34075
lfingers 7.12502
lthumb 40.9382 33.2768
rfemur -27.992 2.90805 12.7741
rtibia 55.3263
rfoot -15.9298 -13.2634
rtoes -1.73624
lfemur -8.40212 5.13827 -18.3023
ltibia 27.7317
lfoot -18.6592 10.1198
ltoes -9.40247
702
root -36.3921 17.4813 10.1796 194.182 -58.9949 -191.989
lowerback 3.01295 -9.8422 -0.314591
upperback -2.305 -13.4004 9.04537
thorax -1.79609 -6.86251 10.0872
lowerneck 4.11712 -14.0832 -20.4604
upperneck 26.2684 -29.5834 14.4629
head 13.4747 -15.4103 4.45005
rclavicle -1.35174e-014 -1.59028e-014
rhumerus -37.9702 -21.7217 -55.6451
rradius 22.4462
rwrist 21.4254
rhand 6.48433 -24.0701
rfingers 7.12502
rthumb 31.7847 -51.319
lclavicle -1.35174e-014 -1.59028e-014
lhumerus -44.5548 2.81598 83.8304
lradius 86.5605
lwrist -29.1853
lhand 16.6667 8.06241
lfingers 7.12502
lthumb 41.4182 32.8444
rfemur -28.1354 2.91709 12.4645
rtibia 55.6523
rfoot -15.4576 -13.3664
rtoes -2.06225
lfemur -7.72107 4.89785 -18.7256
ltibia 27.0659
lfoot -18.7267 10.4589
ltoes -9.24497
703
root -36.5094 17.504 10.2058 194.19 -58.8461 -191.968
lowerback 2.92299 -9.8754 -0.348986
upperback -2.3668 -13.4534 9.11053
thorax -1.77828 -6.89148 10.1621
lowerneck 4.16032 -14.1424 -20.4778
upperneck 25.9858 -29.674 14.6742
head 13.4113 -15.4372 4.51334
rclavicle 8.22969e-014 -6.67916e-014
rhumerus -38.5379 -22.3634 -55.8451
rradius 21.6906
rwrist 22.2573
rhand 6.99673 -23.5025
rfingers 7.12502
rthumb 32.2726 -50.6534
lclavicle 8.22969e-014 -6.67916e-014
lhumerus -44.7467 2.62647 83.7664
lradius 86.9587
lwrist -29.1189
lhand 17.0239 7.88763
lfingers 7.12502
lthumb 41.7532 32.5598
rfemur -28.3231 2.91853 12.1736
rtibia 55.985
rfoot -14.9635 -13.4774
rtoes -2.33943
lfemur -7.04115 4.65835 -19.1379
ltibia 26.3874
lfoot -18.7772 10.8025
ltoes -9.10462
